%TF.GenerationSoftware,KiCad,Pcbnew,7.0.10*%
%TF.CreationDate,2025-11-17T19:05:27+08:00*%
%TF.ProjectId,CN312,434e3331-322e-46b6-9963-61645f706362,rev?*%
%TF.SameCoordinates,Original*%
%TF.FileFunction,Legend,Bot*%
%TF.FilePolarity,Positive*%
%FSLAX46Y46*%
G04 Gerber Fmt 4.6, Leading zero omitted, Abs format (unit mm)*
G04 Created by KiCad (PCBNEW 7.0.10) date 2025-11-17 19:05:27*
%MOMM*%
%LPD*%
G01*
G04 APERTURE LIST*
%ADD10C,0.150000*%
G04 APERTURE END LIST*
D10*
X141056077Y-91869819D02*
X140722744Y-92869819D01*
X140722744Y-92869819D02*
X140389411Y-91869819D01*
X140056077Y-92488866D02*
X139294173Y-92488866D01*
X139675125Y-92869819D02*
X139675125Y-92107914D01*
X125306077Y-91869819D02*
X124972744Y-92869819D01*
X124972744Y-92869819D02*
X124639411Y-91869819D01*
X124306077Y-92488866D02*
X123544173Y-92488866D01*
X123925125Y-92869819D02*
X123925125Y-92107914D01*
X125639411Y-89917438D02*
X125734649Y-89869819D01*
X125734649Y-89869819D02*
X125877506Y-89869819D01*
X125877506Y-89869819D02*
X126020363Y-89917438D01*
X126020363Y-89917438D02*
X126115601Y-90012676D01*
X126115601Y-90012676D02*
X126163220Y-90107914D01*
X126163220Y-90107914D02*
X126210839Y-90298390D01*
X126210839Y-90298390D02*
X126210839Y-90441247D01*
X126210839Y-90441247D02*
X126163220Y-90631723D01*
X126163220Y-90631723D02*
X126115601Y-90726961D01*
X126115601Y-90726961D02*
X126020363Y-90822200D01*
X126020363Y-90822200D02*
X125877506Y-90869819D01*
X125877506Y-90869819D02*
X125782268Y-90869819D01*
X125782268Y-90869819D02*
X125639411Y-90822200D01*
X125639411Y-90822200D02*
X125591792Y-90774580D01*
X125591792Y-90774580D02*
X125591792Y-90441247D01*
X125591792Y-90441247D02*
X125782268Y-90441247D01*
X125163220Y-90869819D02*
X125163220Y-89869819D01*
X125163220Y-89869819D02*
X124591792Y-90869819D01*
X124591792Y-90869819D02*
X124591792Y-89869819D01*
X124115601Y-90869819D02*
X124115601Y-89869819D01*
X124115601Y-89869819D02*
X123877506Y-89869819D01*
X123877506Y-89869819D02*
X123734649Y-89917438D01*
X123734649Y-89917438D02*
X123639411Y-90012676D01*
X123639411Y-90012676D02*
X123591792Y-90107914D01*
X123591792Y-90107914D02*
X123544173Y-90298390D01*
X123544173Y-90298390D02*
X123544173Y-90441247D01*
X123544173Y-90441247D02*
X123591792Y-90631723D01*
X123591792Y-90631723D02*
X123639411Y-90726961D01*
X123639411Y-90726961D02*
X123734649Y-90822200D01*
X123734649Y-90822200D02*
X123877506Y-90869819D01*
X123877506Y-90869819D02*
X124115601Y-90869819D01*
M02*
