%TF.GenerationSoftware,KiCad,Pcbnew,9.0.6*%
%TF.CreationDate,2026-01-13T11:25:50+08:00*%
%TF.ProjectId,CN312,434e3331-322e-46b6-9963-61645f706362,rev?*%
%TF.SameCoordinates,Original*%
%TF.FileFunction,Copper,L1,Top*%
%TF.FilePolarity,Positive*%
%FSLAX46Y46*%
G04 Gerber Fmt 4.6, Leading zero omitted, Abs format (unit mm)*
G04 Created by KiCad (PCBNEW 9.0.6) date 2026-01-13 11:25:50*
%MOMM*%
%LPD*%
G01*
G04 APERTURE LIST*
G04 Aperture macros list*
%AMRoundRect*
0 Rectangle with rounded corners*
0 $1 Rounding radius*
0 $2 $3 $4 $5 $6 $7 $8 $9 X,Y pos of 4 corners*
0 Add a 4 corners polygon primitive as box body*
4,1,4,$2,$3,$4,$5,$6,$7,$8,$9,$2,$3,0*
0 Add four circle primitives for the rounded corners*
1,1,$1+$1,$2,$3*
1,1,$1+$1,$4,$5*
1,1,$1+$1,$6,$7*
1,1,$1+$1,$8,$9*
0 Add four rect primitives between the rounded corners*
20,1,$1+$1,$2,$3,$4,$5,0*
20,1,$1+$1,$4,$5,$6,$7,0*
20,1,$1+$1,$6,$7,$8,$9,0*
20,1,$1+$1,$8,$9,$2,$3,0*%
G04 Aperture macros list end*
%TA.AperFunction,SMDPad,CuDef*%
%ADD10RoundRect,0.250000X-0.337500X-0.475000X0.337500X-0.475000X0.337500X0.475000X-0.337500X0.475000X0*%
%TD*%
%TA.AperFunction,SMDPad,CuDef*%
%ADD11RoundRect,0.250000X-0.350000X-0.450000X0.350000X-0.450000X0.350000X0.450000X-0.350000X0.450000X0*%
%TD*%
%TA.AperFunction,SMDPad,CuDef*%
%ADD12RoundRect,0.150000X-0.587500X-0.150000X0.587500X-0.150000X0.587500X0.150000X-0.587500X0.150000X0*%
%TD*%
%TA.AperFunction,SMDPad,CuDef*%
%ADD13RoundRect,0.250000X0.450000X-0.350000X0.450000X0.350000X-0.450000X0.350000X-0.450000X-0.350000X0*%
%TD*%
%TA.AperFunction,ComponentPad*%
%ADD14RoundRect,0.250000X0.702500X-0.350000X0.702500X0.350000X-0.702500X0.350000X-0.702500X-0.350000X0*%
%TD*%
%TA.AperFunction,ComponentPad*%
%ADD15O,1.905000X1.200000*%
%TD*%
%TA.AperFunction,SMDPad,CuDef*%
%ADD16R,1.560000X0.650000*%
%TD*%
%TA.AperFunction,ViaPad*%
%ADD17C,0.800000*%
%TD*%
%TA.AperFunction,Conductor*%
%ADD18C,0.762000*%
%TD*%
%TA.AperFunction,Conductor*%
%ADD19C,0.800000*%
%TD*%
%TA.AperFunction,Conductor*%
%ADD20C,0.635000*%
%TD*%
%TA.AperFunction,Conductor*%
%ADD21C,0.500000*%
%TD*%
%TA.AperFunction,Conductor*%
%ADD22C,0.508000*%
%TD*%
G04 APERTURE END LIST*
D10*
%TO.P,C1,1*%
%TO.N,Net-(U1-VCC)*%
X100902500Y-101092000D03*
%TO.P,C1,2*%
%TO.N,GND*%
X102977500Y-101092000D03*
%TD*%
D11*
%TO.P,R2,1*%
%TO.N,Net-(U1-RTH)*%
X103690000Y-95230000D03*
%TO.P,R2,2*%
%TO.N,GND*%
X105690000Y-95230000D03*
%TD*%
%TO.P,R3,1*%
%TO.N,Net-(U1-FTH)*%
X99190000Y-94980000D03*
%TO.P,R3,2*%
%TO.N,Net-(U1-RTH)*%
X101190000Y-94980000D03*
%TD*%
%TO.P,R1,1*%
%TO.N,Net-(U1-VCC)*%
X94488000Y-95250000D03*
%TO.P,R1,2*%
%TO.N,Net-(U1-FTH)*%
X96488000Y-95250000D03*
%TD*%
D12*
%TO.P,Q1,1,G1*%
%TO.N,Net-(Q1-G1)*%
X103815000Y-97280000D03*
%TO.P,Q1,2,S2*%
%TO.N,GND*%
X103815000Y-99180000D03*
%TO.P,Q1,3,D3*%
%TO.N,Net-(J2-P$2)*%
X105690000Y-98230000D03*
%TD*%
D13*
%TO.P,R4,1*%
%TO.N,Net-(J2-P$2)*%
X98690000Y-102980000D03*
%TO.P,R4,2*%
%TO.N,Net-(U1-VCC)*%
X98690000Y-100980000D03*
%TD*%
D14*
%TO.P,J2,1,P$1*%
%TO.N,Net-(J2-P$2)*%
X109440000Y-101230000D03*
D15*
%TO.P,J2,2,P$2*%
X109440000Y-99230000D03*
%TD*%
D16*
%TO.P,U1,1,FTH*%
%TO.N,Net-(U1-FTH)*%
X98690000Y-97030000D03*
%TO.P,U1,2,GND*%
%TO.N,GND*%
X98690000Y-97980000D03*
%TO.P,U1,3,LBO*%
%TO.N,unconnected-(U1-LBO-Pad3)*%
X98690000Y-98930000D03*
%TO.P,U1,4,VCC*%
%TO.N,Net-(U1-VCC)*%
X101390000Y-98930000D03*
%TO.P,U1,5,/LBO*%
%TO.N,Net-(Q1-G1)*%
X101390000Y-97980000D03*
%TO.P,U1,6,RTH*%
%TO.N,Net-(U1-RTH)*%
X101390000Y-97030000D03*
%TD*%
D14*
%TO.P,J1,1,P$1*%
%TO.N,Net-(J2-P$2)*%
X93690000Y-101230000D03*
D15*
%TO.P,J1,2,P$2*%
%TO.N,GND*%
X93690000Y-99230000D03*
%TD*%
D17*
%TO.N,GND*%
X96774000Y-97028000D03*
X104140000Y-100076000D03*
X104902000Y-101346000D03*
X107190000Y-96012000D03*
X105664000Y-100076000D03*
%TD*%
D18*
%TO.N,Net-(U1-VCC)*%
X100902500Y-101092000D02*
X100902500Y-99417500D01*
X98690000Y-100980000D02*
X100402500Y-100980000D01*
D19*
X100514500Y-101092000D02*
X100902500Y-101092000D01*
D18*
X96520000Y-98806000D02*
X94440000Y-96726000D01*
X94440000Y-96726000D02*
X94440000Y-95480000D01*
X96520000Y-100076000D02*
X96520000Y-98806000D01*
D20*
X100902500Y-99417500D02*
X101390000Y-98930000D01*
D18*
X97424000Y-100980000D02*
X96520000Y-100076000D01*
D19*
X100402500Y-100980000D02*
X100514500Y-101092000D01*
D18*
X98690000Y-100980000D02*
X97424000Y-100980000D01*
D21*
%TO.N,GND*%
X102977500Y-101092000D02*
X103365500Y-101480000D01*
X103815000Y-100076000D02*
X103815000Y-99180000D01*
D22*
X106408000Y-95230000D02*
X107190000Y-96012000D01*
D21*
X105664000Y-100076000D02*
X103815000Y-100076000D01*
X103365500Y-101092000D02*
X102977500Y-101092000D01*
D22*
X105690000Y-95230000D02*
X106408000Y-95230000D01*
D21*
X98690000Y-97980000D02*
X97472000Y-97980000D01*
X96774000Y-97282000D02*
X96774000Y-97028000D01*
X103815000Y-99180000D02*
X103815000Y-100642500D01*
X97472000Y-97980000D02*
X96774000Y-97282000D01*
X103815000Y-100642500D02*
X103365500Y-101092000D01*
D19*
%TO.N,Net-(J2-P$2)*%
X98591000Y-103079000D02*
X94951000Y-103079000D01*
X109440000Y-101230000D02*
X107800000Y-102870000D01*
D21*
X108440000Y-98230000D02*
X109440000Y-99230000D01*
D19*
X93690000Y-101818000D02*
X93690000Y-101230000D01*
X98690000Y-102980000D02*
X98591000Y-103079000D01*
D21*
X105690000Y-98230000D02*
X108440000Y-98230000D01*
D19*
X94951000Y-103079000D02*
X93690000Y-101818000D01*
X98800000Y-102870000D02*
X98690000Y-102980000D01*
X107800000Y-102870000D02*
X98800000Y-102870000D01*
D20*
%TO.N,Net-(Q1-G1)*%
X101390000Y-97980000D02*
X103115000Y-97980000D01*
X103115000Y-97980000D02*
X103815000Y-97280000D01*
D22*
%TO.N,Net-(U1-FTH)*%
X98690000Y-95230000D02*
X98440000Y-94980000D01*
X98690000Y-97030000D02*
X98690000Y-95230000D01*
D21*
X96940000Y-94980000D02*
X96440000Y-95480000D01*
D22*
X99190000Y-94980000D02*
X96940000Y-94980000D01*
D21*
X99190000Y-94980000D02*
X98440000Y-94980000D01*
D22*
%TO.N,Net-(U1-RTH)*%
X101190000Y-94980000D02*
X103440000Y-94980000D01*
D21*
X103440000Y-94980000D02*
X103690000Y-95230000D01*
X101390000Y-95180000D02*
X101190000Y-94980000D01*
D22*
X101390000Y-97030000D02*
X101390000Y-95180000D01*
%TD*%
%TA.AperFunction,Conductor*%
%TO.N,Net-(J2-P$2)*%
G36*
X109489677Y-97301685D02*
G01*
X109510319Y-97318319D01*
X110199681Y-98007681D01*
X110233166Y-98069004D01*
X110236000Y-98095362D01*
X110236000Y-99190000D01*
X110216315Y-99257039D01*
X110163511Y-99302794D01*
X110112000Y-99314000D01*
X108270363Y-99314000D01*
X108203324Y-99294315D01*
X108167189Y-99258783D01*
X107696000Y-98552000D01*
X105280000Y-98552000D01*
X105212961Y-98532315D01*
X105167206Y-98479511D01*
X105156000Y-98428000D01*
X105156000Y-98095362D01*
X105175685Y-98028323D01*
X105192319Y-98007681D01*
X105881681Y-97318319D01*
X105943004Y-97284834D01*
X105969362Y-97282000D01*
X109422638Y-97282000D01*
X109489677Y-97301685D01*
G37*
%TD.AperFunction*%
%TD*%
%TA.AperFunction,Conductor*%
%TO.N,Net-(J2-P$2)*%
G36*
X95011931Y-100858002D02*
G01*
X95032905Y-100874905D01*
X96773998Y-102615999D01*
X96774000Y-102616000D01*
X99568000Y-102616000D01*
X106172000Y-102616000D01*
X106934000Y-102616000D01*
X108675095Y-100874905D01*
X108737407Y-100840880D01*
X108764190Y-100838000D01*
X110110000Y-100838000D01*
X110178121Y-100858002D01*
X110224614Y-100911658D01*
X110236000Y-100964000D01*
X110236000Y-102817810D01*
X110215998Y-102885931D01*
X110199095Y-102906905D01*
X109663405Y-103442595D01*
X109601093Y-103476621D01*
X109574310Y-103479500D01*
X94895690Y-103479500D01*
X94827569Y-103459498D01*
X94806595Y-103442595D01*
X93254905Y-101890905D01*
X93220879Y-101828593D01*
X93218000Y-101801810D01*
X93218000Y-100964000D01*
X93238002Y-100895879D01*
X93291658Y-100849386D01*
X93344000Y-100838000D01*
X94943810Y-100838000D01*
X95011931Y-100858002D01*
G37*
%TD.AperFunction*%
%TD*%
%TA.AperFunction,Conductor*%
%TO.N,GND*%
G36*
X106695677Y-99079685D02*
G01*
X106716319Y-99096319D01*
X106897681Y-99277681D01*
X106931166Y-99339004D01*
X106934000Y-99365362D01*
X106934000Y-100532638D01*
X106914315Y-100599677D01*
X106897681Y-100620319D01*
X105700319Y-101817681D01*
X105638996Y-101851166D01*
X105612638Y-101854000D01*
X102994000Y-101854000D01*
X102926961Y-101834315D01*
X102881206Y-101781511D01*
X102870000Y-101730000D01*
X102870000Y-99619362D01*
X102889685Y-99552323D01*
X102906319Y-99531681D01*
X103341681Y-99096319D01*
X103403004Y-99062834D01*
X103429362Y-99060000D01*
X106628638Y-99060000D01*
X106695677Y-99079685D01*
G37*
%TD.AperFunction*%
%TD*%
M02*
