%TF.GenerationSoftware,KiCad,Pcbnew,7.0.10*%
%TF.CreationDate,2025-11-17T19:05:27+08:00*%
%TF.ProjectId,CN312,434e3331-322e-46b6-9963-61645f706362,rev?*%
%TF.SameCoordinates,Original*%
%TF.FileFunction,Legend,Top*%
%TF.FilePolarity,Positive*%
%FSLAX46Y46*%
G04 Gerber Fmt 4.6, Leading zero omitted, Abs format (unit mm)*
G04 Created by KiCad (PCBNEW 7.0.10) date 2025-11-17 19:05:27*
%MOMM*%
%LPD*%
G01*
G04 APERTURE LIST*
%ADD10C,0.150000*%
%ADD11C,0.120000*%
G04 APERTURE END LIST*
D10*
X129333333Y-94704819D02*
X129000000Y-94228628D01*
X128761905Y-94704819D02*
X128761905Y-93704819D01*
X128761905Y-93704819D02*
X129142857Y-93704819D01*
X129142857Y-93704819D02*
X129238095Y-93752438D01*
X129238095Y-93752438D02*
X129285714Y-93800057D01*
X129285714Y-93800057D02*
X129333333Y-93895295D01*
X129333333Y-93895295D02*
X129333333Y-94038152D01*
X129333333Y-94038152D02*
X129285714Y-94133390D01*
X129285714Y-94133390D02*
X129238095Y-94181009D01*
X129238095Y-94181009D02*
X129142857Y-94228628D01*
X129142857Y-94228628D02*
X128761905Y-94228628D01*
X130190476Y-94038152D02*
X130190476Y-94704819D01*
X129952381Y-93657200D02*
X129714286Y-94371485D01*
X129714286Y-94371485D02*
X130333333Y-94371485D01*
X138333333Y-86454819D02*
X138000000Y-85978628D01*
X137761905Y-86454819D02*
X137761905Y-85454819D01*
X137761905Y-85454819D02*
X138142857Y-85454819D01*
X138142857Y-85454819D02*
X138238095Y-85502438D01*
X138238095Y-85502438D02*
X138285714Y-85550057D01*
X138285714Y-85550057D02*
X138333333Y-85645295D01*
X138333333Y-85645295D02*
X138333333Y-85788152D01*
X138333333Y-85788152D02*
X138285714Y-85883390D01*
X138285714Y-85883390D02*
X138238095Y-85931009D01*
X138238095Y-85931009D02*
X138142857Y-85978628D01*
X138142857Y-85978628D02*
X137761905Y-85978628D01*
X138666667Y-85454819D02*
X139285714Y-85454819D01*
X139285714Y-85454819D02*
X138952381Y-85835771D01*
X138952381Y-85835771D02*
X139095238Y-85835771D01*
X139095238Y-85835771D02*
X139190476Y-85883390D01*
X139190476Y-85883390D02*
X139238095Y-85931009D01*
X139238095Y-85931009D02*
X139285714Y-86026247D01*
X139285714Y-86026247D02*
X139285714Y-86264342D01*
X139285714Y-86264342D02*
X139238095Y-86359580D01*
X139238095Y-86359580D02*
X139190476Y-86407200D01*
X139190476Y-86407200D02*
X139095238Y-86454819D01*
X139095238Y-86454819D02*
X138809524Y-86454819D01*
X138809524Y-86454819D02*
X138714286Y-86407200D01*
X138714286Y-86407200D02*
X138666667Y-86359580D01*
X140333333Y-86454819D02*
X140000000Y-85978628D01*
X139761905Y-86454819D02*
X139761905Y-85454819D01*
X139761905Y-85454819D02*
X140142857Y-85454819D01*
X140142857Y-85454819D02*
X140238095Y-85502438D01*
X140238095Y-85502438D02*
X140285714Y-85550057D01*
X140285714Y-85550057D02*
X140333333Y-85645295D01*
X140333333Y-85645295D02*
X140333333Y-85788152D01*
X140333333Y-85788152D02*
X140285714Y-85883390D01*
X140285714Y-85883390D02*
X140238095Y-85931009D01*
X140238095Y-85931009D02*
X140142857Y-85978628D01*
X140142857Y-85978628D02*
X139761905Y-85978628D01*
X140714286Y-85550057D02*
X140761905Y-85502438D01*
X140761905Y-85502438D02*
X140857143Y-85454819D01*
X140857143Y-85454819D02*
X141095238Y-85454819D01*
X141095238Y-85454819D02*
X141190476Y-85502438D01*
X141190476Y-85502438D02*
X141238095Y-85550057D01*
X141238095Y-85550057D02*
X141285714Y-85645295D01*
X141285714Y-85645295D02*
X141285714Y-85740533D01*
X141285714Y-85740533D02*
X141238095Y-85883390D01*
X141238095Y-85883390D02*
X140666667Y-86454819D01*
X140666667Y-86454819D02*
X141285714Y-86454819D01*
X136083333Y-86454819D02*
X135750000Y-85978628D01*
X135511905Y-86454819D02*
X135511905Y-85454819D01*
X135511905Y-85454819D02*
X135892857Y-85454819D01*
X135892857Y-85454819D02*
X135988095Y-85502438D01*
X135988095Y-85502438D02*
X136035714Y-85550057D01*
X136035714Y-85550057D02*
X136083333Y-85645295D01*
X136083333Y-85645295D02*
X136083333Y-85788152D01*
X136083333Y-85788152D02*
X136035714Y-85883390D01*
X136035714Y-85883390D02*
X135988095Y-85931009D01*
X135988095Y-85931009D02*
X135892857Y-85978628D01*
X135892857Y-85978628D02*
X135511905Y-85978628D01*
X137035714Y-86454819D02*
X136464286Y-86454819D01*
X136750000Y-86454819D02*
X136750000Y-85454819D01*
X136750000Y-85454819D02*
X136654762Y-85597676D01*
X136654762Y-85597676D02*
X136559524Y-85692914D01*
X136559524Y-85692914D02*
X136464286Y-85740533D01*
X134404761Y-92300057D02*
X134309523Y-92252438D01*
X134309523Y-92252438D02*
X134214285Y-92157200D01*
X134214285Y-92157200D02*
X134071428Y-92014342D01*
X134071428Y-92014342D02*
X133976190Y-91966723D01*
X133976190Y-91966723D02*
X133880952Y-91966723D01*
X133928571Y-92204819D02*
X133833333Y-92157200D01*
X133833333Y-92157200D02*
X133738095Y-92061961D01*
X133738095Y-92061961D02*
X133690476Y-91871485D01*
X133690476Y-91871485D02*
X133690476Y-91538152D01*
X133690476Y-91538152D02*
X133738095Y-91347676D01*
X133738095Y-91347676D02*
X133833333Y-91252438D01*
X133833333Y-91252438D02*
X133928571Y-91204819D01*
X133928571Y-91204819D02*
X134119047Y-91204819D01*
X134119047Y-91204819D02*
X134214285Y-91252438D01*
X134214285Y-91252438D02*
X134309523Y-91347676D01*
X134309523Y-91347676D02*
X134357142Y-91538152D01*
X134357142Y-91538152D02*
X134357142Y-91871485D01*
X134357142Y-91871485D02*
X134309523Y-92061961D01*
X134309523Y-92061961D02*
X134214285Y-92157200D01*
X134214285Y-92157200D02*
X134119047Y-92204819D01*
X134119047Y-92204819D02*
X133928571Y-92204819D01*
X135309523Y-92204819D02*
X134738095Y-92204819D01*
X135023809Y-92204819D02*
X135023809Y-91204819D01*
X135023809Y-91204819D02*
X134928571Y-91347676D01*
X134928571Y-91347676D02*
X134833333Y-91442914D01*
X134833333Y-91442914D02*
X134738095Y-91490533D01*
X134666666Y-93704819D02*
X134666666Y-94419104D01*
X134666666Y-94419104D02*
X134619047Y-94561961D01*
X134619047Y-94561961D02*
X134523809Y-94657200D01*
X134523809Y-94657200D02*
X134380952Y-94704819D01*
X134380952Y-94704819D02*
X134285714Y-94704819D01*
X135095238Y-93800057D02*
X135142857Y-93752438D01*
X135142857Y-93752438D02*
X135238095Y-93704819D01*
X135238095Y-93704819D02*
X135476190Y-93704819D01*
X135476190Y-93704819D02*
X135571428Y-93752438D01*
X135571428Y-93752438D02*
X135619047Y-93800057D01*
X135619047Y-93800057D02*
X135666666Y-93895295D01*
X135666666Y-93895295D02*
X135666666Y-93990533D01*
X135666666Y-93990533D02*
X135619047Y-94133390D01*
X135619047Y-94133390D02*
X135047619Y-94704819D01*
X135047619Y-94704819D02*
X135666666Y-94704819D01*
X137190476Y-87704819D02*
X137095238Y-87657200D01*
X137095238Y-87657200D02*
X137047619Y-87609580D01*
X137047619Y-87609580D02*
X137000000Y-87514342D01*
X137000000Y-87514342D02*
X137000000Y-87228628D01*
X137000000Y-87228628D02*
X137047619Y-87133390D01*
X137047619Y-87133390D02*
X137095238Y-87085771D01*
X137095238Y-87085771D02*
X137190476Y-87038152D01*
X137190476Y-87038152D02*
X137333333Y-87038152D01*
X137333333Y-87038152D02*
X137428571Y-87085771D01*
X137428571Y-87085771D02*
X137476190Y-87133390D01*
X137476190Y-87133390D02*
X137523809Y-87228628D01*
X137523809Y-87228628D02*
X137523809Y-87514342D01*
X137523809Y-87514342D02*
X137476190Y-87609580D01*
X137476190Y-87609580D02*
X137428571Y-87657200D01*
X137428571Y-87657200D02*
X137333333Y-87704819D01*
X137333333Y-87704819D02*
X137190476Y-87704819D01*
X138380952Y-87038152D02*
X138380952Y-87704819D01*
X137952381Y-87038152D02*
X137952381Y-87561961D01*
X137952381Y-87561961D02*
X138000000Y-87657200D01*
X138000000Y-87657200D02*
X138095238Y-87704819D01*
X138095238Y-87704819D02*
X138238095Y-87704819D01*
X138238095Y-87704819D02*
X138333333Y-87657200D01*
X138333333Y-87657200D02*
X138380952Y-87609580D01*
X138714286Y-87038152D02*
X139095238Y-87038152D01*
X138857143Y-86704819D02*
X138857143Y-87561961D01*
X138857143Y-87561961D02*
X138904762Y-87657200D01*
X138904762Y-87657200D02*
X139000000Y-87704819D01*
X139000000Y-87704819D02*
X139095238Y-87704819D01*
X120666666Y-85454819D02*
X120666666Y-86169104D01*
X120666666Y-86169104D02*
X120619047Y-86311961D01*
X120619047Y-86311961D02*
X120523809Y-86407200D01*
X120523809Y-86407200D02*
X120380952Y-86454819D01*
X120380952Y-86454819D02*
X120285714Y-86454819D01*
X121666666Y-86454819D02*
X121095238Y-86454819D01*
X121380952Y-86454819D02*
X121380952Y-85454819D01*
X121380952Y-85454819D02*
X121285714Y-85597676D01*
X121285714Y-85597676D02*
X121190476Y-85692914D01*
X121190476Y-85692914D02*
X121095238Y-85740533D01*
X120297619Y-87704819D02*
X120297619Y-87038152D01*
X120297619Y-86704819D02*
X120250000Y-86752438D01*
X120250000Y-86752438D02*
X120297619Y-86800057D01*
X120297619Y-86800057D02*
X120345238Y-86752438D01*
X120345238Y-86752438D02*
X120297619Y-86704819D01*
X120297619Y-86704819D02*
X120297619Y-86800057D01*
X120773809Y-87038152D02*
X120773809Y-87704819D01*
X120773809Y-87133390D02*
X120821428Y-87085771D01*
X120821428Y-87085771D02*
X120916666Y-87038152D01*
X120916666Y-87038152D02*
X121059523Y-87038152D01*
X121059523Y-87038152D02*
X121154761Y-87085771D01*
X121154761Y-87085771D02*
X121202380Y-87181009D01*
X121202380Y-87181009D02*
X121202380Y-87704819D01*
X131833333Y-94609580D02*
X131785714Y-94657200D01*
X131785714Y-94657200D02*
X131642857Y-94704819D01*
X131642857Y-94704819D02*
X131547619Y-94704819D01*
X131547619Y-94704819D02*
X131404762Y-94657200D01*
X131404762Y-94657200D02*
X131309524Y-94561961D01*
X131309524Y-94561961D02*
X131261905Y-94466723D01*
X131261905Y-94466723D02*
X131214286Y-94276247D01*
X131214286Y-94276247D02*
X131214286Y-94133390D01*
X131214286Y-94133390D02*
X131261905Y-93942914D01*
X131261905Y-93942914D02*
X131309524Y-93847676D01*
X131309524Y-93847676D02*
X131404762Y-93752438D01*
X131404762Y-93752438D02*
X131547619Y-93704819D01*
X131547619Y-93704819D02*
X131642857Y-93704819D01*
X131642857Y-93704819D02*
X131785714Y-93752438D01*
X131785714Y-93752438D02*
X131833333Y-93800057D01*
X132785714Y-94704819D02*
X132214286Y-94704819D01*
X132500000Y-94704819D02*
X132500000Y-93704819D01*
X132500000Y-93704819D02*
X132404762Y-93847676D01*
X132404762Y-93847676D02*
X132309524Y-93942914D01*
X132309524Y-93942914D02*
X132214286Y-93990533D01*
D11*
%TO.C,U1*%
X127700000Y-90610000D02*
X129500000Y-90610000D01*
X129500000Y-87390000D02*
X126550000Y-87390000D01*
%TO.C,R4*%
X126515000Y-93227064D02*
X126515000Y-92772936D01*
X127985000Y-93227064D02*
X127985000Y-92772936D01*
%TO.C,R3*%
X128522936Y-85265000D02*
X128977064Y-85265000D01*
X128522936Y-86735000D02*
X128977064Y-86735000D01*
%TO.C,R2*%
X133022936Y-85515000D02*
X133477064Y-85515000D01*
X133022936Y-86985000D02*
X133477064Y-86985000D01*
%TO.C,R1*%
X123772936Y-85765000D02*
X124227064Y-85765000D01*
X123772936Y-87235000D02*
X124227064Y-87235000D01*
%TO.C,Q1*%
X133312500Y-87690000D02*
X131637500Y-87690000D01*
X133312500Y-87690000D02*
X133962500Y-87690000D01*
X133312500Y-90810000D02*
X132662500Y-90810000D01*
X133312500Y-90810000D02*
X133962500Y-90810000D01*
%TO.C,J2*%
X135990000Y-92850000D02*
X136190000Y-92850000D01*
X140300000Y-93700000D02*
X140300000Y-88800000D01*
X140300000Y-88800000D02*
X136800000Y-88800000D01*
X138800000Y-94310000D02*
X138800000Y-93700000D01*
X139800000Y-91150000D02*
X140300000Y-91150000D01*
X136190000Y-91750000D02*
X136800000Y-91750000D01*
X136800000Y-93700000D02*
X140300000Y-93700000D01*
X136190000Y-92550000D02*
X135990000Y-92550000D01*
X136190000Y-94310000D02*
X140910000Y-94310000D01*
X136190000Y-88190000D02*
X136190000Y-94310000D01*
X136800000Y-91750000D02*
X136800000Y-93700000D01*
X138800000Y-88190000D02*
X138800000Y-88800000D01*
X136800000Y-88800000D02*
X136800000Y-90750000D01*
X137500000Y-94310000D02*
X137500000Y-93700000D01*
X140300000Y-91250000D02*
X139800000Y-91250000D01*
X139800000Y-91350000D02*
X139800000Y-91150000D01*
X140910000Y-88190000D02*
X136190000Y-88190000D01*
X136090000Y-92550000D02*
X136090000Y-92850000D01*
X136800000Y-90750000D02*
X136190000Y-90750000D01*
X135890000Y-94610000D02*
X137140000Y-94610000D01*
X135890000Y-93360000D02*
X135890000Y-94610000D01*
X140910000Y-94310000D02*
X140910000Y-88190000D01*
X137500000Y-88190000D02*
X137500000Y-88800000D01*
X135990000Y-92550000D02*
X135990000Y-92850000D01*
X140300000Y-91350000D02*
X139800000Y-91350000D01*
%TO.C,J1*%
X120240000Y-92850000D02*
X120440000Y-92850000D01*
X124550000Y-93700000D02*
X124550000Y-88800000D01*
X124550000Y-88800000D02*
X121050000Y-88800000D01*
X123050000Y-94310000D02*
X123050000Y-93700000D01*
X124050000Y-91150000D02*
X124550000Y-91150000D01*
X120440000Y-91750000D02*
X121050000Y-91750000D01*
X121050000Y-93700000D02*
X124550000Y-93700000D01*
X120440000Y-92550000D02*
X120240000Y-92550000D01*
X120440000Y-94310000D02*
X125160000Y-94310000D01*
X120440000Y-88190000D02*
X120440000Y-94310000D01*
X121050000Y-91750000D02*
X121050000Y-93700000D01*
X123050000Y-88190000D02*
X123050000Y-88800000D01*
X121050000Y-88800000D02*
X121050000Y-90750000D01*
X121750000Y-94310000D02*
X121750000Y-93700000D01*
X124550000Y-91250000D02*
X124050000Y-91250000D01*
X124050000Y-91350000D02*
X124050000Y-91150000D01*
X125160000Y-88190000D02*
X120440000Y-88190000D01*
X120340000Y-92550000D02*
X120340000Y-92850000D01*
X121050000Y-90750000D02*
X120440000Y-90750000D01*
X120140000Y-94610000D02*
X121390000Y-94610000D01*
X120140000Y-93360000D02*
X120140000Y-94610000D01*
X125160000Y-94310000D02*
X125160000Y-88190000D01*
X121750000Y-88190000D02*
X121750000Y-88800000D01*
X120240000Y-92550000D02*
X120240000Y-92850000D01*
X124550000Y-91350000D02*
X124050000Y-91350000D01*
%TO.C,C1*%
X130238748Y-91765000D02*
X130761252Y-91765000D01*
X130238748Y-93235000D02*
X130761252Y-93235000D01*
%TD*%
M02*
