%TF.GenerationSoftware,KiCad,Pcbnew,9.0.6*%
%TF.CreationDate,2026-01-13T11:25:50+08:00*%
%TF.ProjectId,CN312,434e3331-322e-46b6-9963-61645f706362,rev?*%
%TF.SameCoordinates,Original*%
%TF.FileFunction,Legend,Bot*%
%TF.FilePolarity,Positive*%
%FSLAX46Y46*%
G04 Gerber Fmt 4.6, Leading zero omitted, Abs format (unit mm)*
G04 Created by KiCad (PCBNEW 9.0.6) date 2026-01-13 11:25:50*
%MOMM*%
%LPD*%
G01*
G04 APERTURE LIST*
%ADD10C,0.150000*%
G04 APERTURE END LIST*
D10*
X107089411Y-98739438D02*
X107184649Y-98691819D01*
X107184649Y-98691819D02*
X107327506Y-98691819D01*
X107327506Y-98691819D02*
X107470363Y-98739438D01*
X107470363Y-98739438D02*
X107565601Y-98834676D01*
X107565601Y-98834676D02*
X107613220Y-98929914D01*
X107613220Y-98929914D02*
X107660839Y-99120390D01*
X107660839Y-99120390D02*
X107660839Y-99263247D01*
X107660839Y-99263247D02*
X107613220Y-99453723D01*
X107613220Y-99453723D02*
X107565601Y-99548961D01*
X107565601Y-99548961D02*
X107470363Y-99644200D01*
X107470363Y-99644200D02*
X107327506Y-99691819D01*
X107327506Y-99691819D02*
X107232268Y-99691819D01*
X107232268Y-99691819D02*
X107089411Y-99644200D01*
X107089411Y-99644200D02*
X107041792Y-99596580D01*
X107041792Y-99596580D02*
X107041792Y-99263247D01*
X107041792Y-99263247D02*
X107232268Y-99263247D01*
X106613220Y-99691819D02*
X106613220Y-98691819D01*
X106613220Y-98691819D02*
X106041792Y-99691819D01*
X106041792Y-99691819D02*
X106041792Y-98691819D01*
X105565601Y-99691819D02*
X105565601Y-98691819D01*
X105565601Y-98691819D02*
X105327506Y-98691819D01*
X105327506Y-98691819D02*
X105184649Y-98739438D01*
X105184649Y-98739438D02*
X105089411Y-98834676D01*
X105089411Y-98834676D02*
X105041792Y-98929914D01*
X105041792Y-98929914D02*
X104994173Y-99120390D01*
X104994173Y-99120390D02*
X104994173Y-99263247D01*
X104994173Y-99263247D02*
X105041792Y-99453723D01*
X105041792Y-99453723D02*
X105089411Y-99548961D01*
X105089411Y-99548961D02*
X105184649Y-99644200D01*
X105184649Y-99644200D02*
X105327506Y-99691819D01*
X105327506Y-99691819D02*
X105565601Y-99691819D01*
X97183411Y-98739438D02*
X97278649Y-98691819D01*
X97278649Y-98691819D02*
X97421506Y-98691819D01*
X97421506Y-98691819D02*
X97564363Y-98739438D01*
X97564363Y-98739438D02*
X97659601Y-98834676D01*
X97659601Y-98834676D02*
X97707220Y-98929914D01*
X97707220Y-98929914D02*
X97754839Y-99120390D01*
X97754839Y-99120390D02*
X97754839Y-99263247D01*
X97754839Y-99263247D02*
X97707220Y-99453723D01*
X97707220Y-99453723D02*
X97659601Y-99548961D01*
X97659601Y-99548961D02*
X97564363Y-99644200D01*
X97564363Y-99644200D02*
X97421506Y-99691819D01*
X97421506Y-99691819D02*
X97326268Y-99691819D01*
X97326268Y-99691819D02*
X97183411Y-99644200D01*
X97183411Y-99644200D02*
X97135792Y-99596580D01*
X97135792Y-99596580D02*
X97135792Y-99263247D01*
X97135792Y-99263247D02*
X97326268Y-99263247D01*
X96707220Y-99691819D02*
X96707220Y-98691819D01*
X96707220Y-98691819D02*
X96135792Y-99691819D01*
X96135792Y-99691819D02*
X96135792Y-98691819D01*
X95659601Y-99691819D02*
X95659601Y-98691819D01*
X95659601Y-98691819D02*
X95421506Y-98691819D01*
X95421506Y-98691819D02*
X95278649Y-98739438D01*
X95278649Y-98739438D02*
X95183411Y-98834676D01*
X95183411Y-98834676D02*
X95135792Y-98929914D01*
X95135792Y-98929914D02*
X95088173Y-99120390D01*
X95088173Y-99120390D02*
X95088173Y-99263247D01*
X95088173Y-99263247D02*
X95135792Y-99453723D01*
X95135792Y-99453723D02*
X95183411Y-99548961D01*
X95183411Y-99548961D02*
X95278649Y-99644200D01*
X95278649Y-99644200D02*
X95421506Y-99691819D01*
X95421506Y-99691819D02*
X95659601Y-99691819D01*
X107502077Y-100977819D02*
X107168744Y-101977819D01*
X107168744Y-101977819D02*
X106835411Y-100977819D01*
X106359220Y-101977819D02*
X106454458Y-101930200D01*
X106454458Y-101930200D02*
X106502077Y-101882580D01*
X106502077Y-101882580D02*
X106549696Y-101787342D01*
X106549696Y-101787342D02*
X106549696Y-101501628D01*
X106549696Y-101501628D02*
X106502077Y-101406390D01*
X106502077Y-101406390D02*
X106454458Y-101358771D01*
X106454458Y-101358771D02*
X106359220Y-101311152D01*
X106359220Y-101311152D02*
X106216363Y-101311152D01*
X106216363Y-101311152D02*
X106121125Y-101358771D01*
X106121125Y-101358771D02*
X106073506Y-101406390D01*
X106073506Y-101406390D02*
X106025887Y-101501628D01*
X106025887Y-101501628D02*
X106025887Y-101787342D01*
X106025887Y-101787342D02*
X106073506Y-101882580D01*
X106073506Y-101882580D02*
X106121125Y-101930200D01*
X106121125Y-101930200D02*
X106216363Y-101977819D01*
X106216363Y-101977819D02*
X106359220Y-101977819D01*
X105168744Y-101311152D02*
X105168744Y-101977819D01*
X105597315Y-101311152D02*
X105597315Y-101834961D01*
X105597315Y-101834961D02*
X105549696Y-101930200D01*
X105549696Y-101930200D02*
X105454458Y-101977819D01*
X105454458Y-101977819D02*
X105311601Y-101977819D01*
X105311601Y-101977819D02*
X105216363Y-101930200D01*
X105216363Y-101930200D02*
X105168744Y-101882580D01*
X104835410Y-101311152D02*
X104454458Y-101311152D01*
X104692553Y-100977819D02*
X104692553Y-101834961D01*
X104692553Y-101834961D02*
X104644934Y-101930200D01*
X104644934Y-101930200D02*
X104549696Y-101977819D01*
X104549696Y-101977819D02*
X104454458Y-101977819D01*
X97596077Y-100723819D02*
X97262744Y-101723819D01*
X97262744Y-101723819D02*
X96929411Y-100723819D01*
X96596077Y-101723819D02*
X96596077Y-101057152D01*
X96596077Y-100723819D02*
X96643696Y-100771438D01*
X96643696Y-100771438D02*
X96596077Y-100819057D01*
X96596077Y-100819057D02*
X96548458Y-100771438D01*
X96548458Y-100771438D02*
X96596077Y-100723819D01*
X96596077Y-100723819D02*
X96596077Y-100819057D01*
X96119887Y-101057152D02*
X96119887Y-101723819D01*
X96119887Y-101152390D02*
X96072268Y-101104771D01*
X96072268Y-101104771D02*
X95977030Y-101057152D01*
X95977030Y-101057152D02*
X95834173Y-101057152D01*
X95834173Y-101057152D02*
X95738935Y-101104771D01*
X95738935Y-101104771D02*
X95691316Y-101200009D01*
X95691316Y-101200009D02*
X95691316Y-101723819D01*
M02*
