%TF.GenerationSoftware,KiCad,Pcbnew,7.0.10*%
%TF.CreationDate,2025-11-17T19:05:27+08:00*%
%TF.ProjectId,CN312,434e3331-322e-46b6-9963-61645f706362,rev?*%
%TF.SameCoordinates,Original*%
%TF.FileFunction,Copper,L1,Top*%
%TF.FilePolarity,Positive*%
%FSLAX46Y46*%
G04 Gerber Fmt 4.6, Leading zero omitted, Abs format (unit mm)*
G04 Created by KiCad (PCBNEW 7.0.10) date 2025-11-17 19:05:27*
%MOMM*%
%LPD*%
G01*
G04 APERTURE LIST*
G04 Aperture macros list*
%AMRoundRect*
0 Rectangle with rounded corners*
0 $1 Rounding radius*
0 $2 $3 $4 $5 $6 $7 $8 $9 X,Y pos of 4 corners*
0 Add a 4 corners polygon primitive as box body*
4,1,4,$2,$3,$4,$5,$6,$7,$8,$9,$2,$3,0*
0 Add four circle primitives for the rounded corners*
1,1,$1+$1,$2,$3*
1,1,$1+$1,$4,$5*
1,1,$1+$1,$6,$7*
1,1,$1+$1,$8,$9*
0 Add four rect primitives between the rounded corners*
20,1,$1+$1,$2,$3,$4,$5,0*
20,1,$1+$1,$4,$5,$6,$7,0*
20,1,$1+$1,$6,$7,$8,$9,0*
20,1,$1+$1,$8,$9,$2,$3,0*%
G04 Aperture macros list end*
%TA.AperFunction,SMDPad,CuDef*%
%ADD10R,1.560000X0.650000*%
%TD*%
%TA.AperFunction,SMDPad,CuDef*%
%ADD11RoundRect,0.250000X0.450000X-0.350000X0.450000X0.350000X-0.450000X0.350000X-0.450000X-0.350000X0*%
%TD*%
%TA.AperFunction,SMDPad,CuDef*%
%ADD12RoundRect,0.250000X-0.350000X-0.450000X0.350000X-0.450000X0.350000X0.450000X-0.350000X0.450000X0*%
%TD*%
%TA.AperFunction,SMDPad,CuDef*%
%ADD13RoundRect,0.150000X-0.587500X-0.150000X0.587500X-0.150000X0.587500X0.150000X-0.587500X0.150000X0*%
%TD*%
%TA.AperFunction,ComponentPad*%
%ADD14RoundRect,0.250000X0.625000X-0.350000X0.625000X0.350000X-0.625000X0.350000X-0.625000X-0.350000X0*%
%TD*%
%TA.AperFunction,ComponentPad*%
%ADD15O,1.750000X1.200000*%
%TD*%
%TA.AperFunction,SMDPad,CuDef*%
%ADD16RoundRect,0.250000X-0.337500X-0.475000X0.337500X-0.475000X0.337500X0.475000X-0.337500X0.475000X0*%
%TD*%
%TA.AperFunction,ViaPad*%
%ADD17C,0.800000*%
%TD*%
%TA.AperFunction,Conductor*%
%ADD18C,0.800000*%
%TD*%
%TA.AperFunction,Conductor*%
%ADD19C,0.500000*%
%TD*%
G04 APERTURE END LIST*
D10*
%TO.P,U1,1,FTH*%
%TO.N,Net-(U1-FTH)*%
X127250000Y-88050000D03*
%TO.P,U1,2,GND*%
%TO.N,GND*%
X127250000Y-89000000D03*
%TO.P,U1,3,LBO*%
%TO.N,unconnected-(U1-LBO-Pad3)*%
X127250000Y-89950000D03*
%TO.P,U1,4,VCC*%
%TO.N,Net-(U1-VCC)*%
X129950000Y-89950000D03*
%TO.P,U1,5,/LBO*%
%TO.N,Net-(Q1-G1)*%
X129950000Y-89000000D03*
%TO.P,U1,6,RTH*%
%TO.N,Net-(U1-RTH)*%
X129950000Y-88050000D03*
%TD*%
D11*
%TO.P,R4,1*%
%TO.N,Net-(J1-P$1)*%
X127250000Y-94000000D03*
%TO.P,R4,2*%
%TO.N,Net-(U1-VCC)*%
X127250000Y-92000000D03*
%TD*%
D12*
%TO.P,R3,1*%
%TO.N,Net-(U1-FTH)*%
X127750000Y-86000000D03*
%TO.P,R3,2*%
%TO.N,Net-(U1-RTH)*%
X129750000Y-86000000D03*
%TD*%
%TO.P,R2,1*%
%TO.N,Net-(U1-RTH)*%
X132250000Y-86250000D03*
%TO.P,R2,2*%
%TO.N,GND*%
X134250000Y-86250000D03*
%TD*%
%TO.P,R1,1*%
%TO.N,Net-(U1-VCC)*%
X123000000Y-86500000D03*
%TO.P,R1,2*%
%TO.N,Net-(U1-FTH)*%
X125000000Y-86500000D03*
%TD*%
D13*
%TO.P,Q1,1,G1*%
%TO.N,Net-(Q1-G1)*%
X132375000Y-88300000D03*
%TO.P,Q1,2,S2*%
%TO.N,GND*%
X132375000Y-90200000D03*
%TO.P,Q1,3,D3*%
%TO.N,Net-(J2-P$2)*%
X134250000Y-89250000D03*
%TD*%
D14*
%TO.P,J2,1,P$1*%
%TO.N,Net-(J1-P$1)*%
X138000000Y-92250000D03*
D15*
%TO.P,J2,2,P$2*%
%TO.N,Net-(J2-P$2)*%
X138000000Y-90250000D03*
%TD*%
D14*
%TO.P,J1,1,P$1*%
%TO.N,Net-(J1-P$1)*%
X122250000Y-92250000D03*
D15*
%TO.P,J1,2,P$2*%
%TO.N,GND*%
X122250000Y-90250000D03*
%TD*%
D16*
%TO.P,C1,1*%
%TO.N,Net-(U1-VCC)*%
X129462500Y-92500000D03*
%TO.P,C1,2*%
%TO.N,GND*%
X131537500Y-92500000D03*
%TD*%
D17*
%TO.N,GND*%
X133250000Y-92500000D03*
X135750000Y-86250000D03*
X135750000Y-90250000D03*
X125750000Y-89000000D03*
%TD*%
D18*
%TO.N,Net-(J1-P$1)*%
X135750000Y-94500000D02*
X127750000Y-94500000D01*
X127750000Y-94500000D02*
X127250000Y-94000000D01*
X138000000Y-92250000D02*
X135750000Y-94500000D01*
D19*
%TO.N,GND*%
X131537500Y-92500000D02*
X133250000Y-92500000D01*
X135750000Y-90250000D02*
X132425000Y-90250000D01*
X132425000Y-90250000D02*
X132375000Y-90200000D01*
X134250000Y-86250000D02*
X135750000Y-86250000D01*
X127250000Y-89000000D02*
X125750000Y-89000000D01*
D18*
%TO.N,Net-(U1-VCC)*%
X124500000Y-89500000D02*
X123000000Y-88000000D01*
X123000000Y-88000000D02*
X123000000Y-86500000D01*
X124500000Y-90750000D02*
X124500000Y-89500000D01*
X125750000Y-92000000D02*
X124500000Y-90750000D01*
X127250000Y-92000000D02*
X125750000Y-92000000D01*
D19*
%TO.N,GND*%
X132375000Y-91662500D02*
X131537500Y-92500000D01*
X132375000Y-90200000D02*
X132375000Y-91662500D01*
%TO.N,Net-(U1-VCC)*%
X129500000Y-90400000D02*
X129500000Y-90750000D01*
X129950000Y-89950000D02*
X129500000Y-90400000D01*
X129500000Y-90750000D02*
X129462500Y-90787500D01*
X129462500Y-90787500D02*
X129462500Y-92500000D01*
%TO.N,Net-(Q1-G1)*%
X131675000Y-89000000D02*
X132375000Y-88300000D01*
X129950000Y-89000000D02*
X131675000Y-89000000D01*
%TO.N,Net-(U1-RTH)*%
X129950000Y-86200000D02*
X129750000Y-86000000D01*
X129950000Y-88050000D02*
X129950000Y-86200000D01*
X132000000Y-86000000D02*
X132250000Y-86250000D01*
X129750000Y-86000000D02*
X132000000Y-86000000D01*
%TO.N,Net-(U1-FTH)*%
X127250000Y-86250000D02*
X127000000Y-86000000D01*
X127250000Y-88050000D02*
X127250000Y-86250000D01*
X125500000Y-86000000D02*
X125000000Y-86500000D01*
X127750000Y-86000000D02*
X125500000Y-86000000D01*
%TO.N,Net-(J2-P$2)*%
X137000000Y-89250000D02*
X138000000Y-90250000D01*
X134250000Y-89250000D02*
X137000000Y-89250000D01*
D18*
%TO.N,Net-(U1-VCC)*%
X128962500Y-92000000D02*
X129462500Y-92500000D01*
X127250000Y-92000000D02*
X128962500Y-92000000D01*
%TO.N,Net-(J1-P$1)*%
X124000000Y-94000000D02*
X122250000Y-92250000D01*
X127250000Y-94000000D02*
X124000000Y-94000000D01*
%TD*%
%TA.AperFunction,Conductor*%
%TO.N,GND*%
G36*
X125515124Y-85012795D02*
G01*
X125539555Y-85001716D01*
X125556878Y-85000500D01*
X126634979Y-85000500D01*
X126702018Y-85020185D01*
X126747773Y-85072989D01*
X126757717Y-85142147D01*
X126740508Y-85189612D01*
X126739891Y-85190612D01*
X126687937Y-85237329D01*
X126634362Y-85249500D01*
X125563705Y-85249500D01*
X125545735Y-85248191D01*
X125538906Y-85247190D01*
X125517632Y-85237407D01*
X125508188Y-85243477D01*
X125484061Y-85248028D01*
X125478243Y-85248536D01*
X125472630Y-85249028D01*
X125461824Y-85249500D01*
X125456284Y-85249500D01*
X125425501Y-85253098D01*
X125421916Y-85253464D01*
X125347199Y-85260001D01*
X125340132Y-85261460D01*
X125340120Y-85261404D01*
X125332763Y-85263035D01*
X125332777Y-85263092D01*
X125325743Y-85264759D01*
X125255241Y-85290418D01*
X125251864Y-85291592D01*
X125246996Y-85293205D01*
X125207991Y-85299500D01*
X124599998Y-85299500D01*
X124599980Y-85299501D01*
X124497203Y-85310000D01*
X124497200Y-85310001D01*
X124330668Y-85365185D01*
X124330663Y-85365187D01*
X124181342Y-85457289D01*
X124087681Y-85550951D01*
X124026358Y-85584436D01*
X123956666Y-85579452D01*
X123912319Y-85550951D01*
X123818657Y-85457289D01*
X123818656Y-85457288D01*
X123669334Y-85365186D01*
X123502797Y-85310001D01*
X123502795Y-85310000D01*
X123400010Y-85299500D01*
X122599998Y-85299500D01*
X122599980Y-85299501D01*
X122497203Y-85310000D01*
X122497200Y-85310001D01*
X122330668Y-85365185D01*
X122330663Y-85365187D01*
X122181342Y-85457289D01*
X122057289Y-85581342D01*
X121965187Y-85730663D01*
X121965186Y-85730666D01*
X121910001Y-85897203D01*
X121910001Y-85897204D01*
X121910000Y-85897204D01*
X121899500Y-85999983D01*
X121899500Y-87000001D01*
X121899501Y-87000019D01*
X121910000Y-87102796D01*
X121910001Y-87102799D01*
X121965185Y-87269331D01*
X121965187Y-87269336D01*
X121979607Y-87292715D01*
X122043472Y-87396257D01*
X122057289Y-87418657D01*
X122063181Y-87424549D01*
X122096666Y-87485872D01*
X122099500Y-87512230D01*
X122099500Y-87919373D01*
X122097973Y-87938772D01*
X122095781Y-87952611D01*
X122099330Y-88020335D01*
X122099500Y-88026824D01*
X122099500Y-88047192D01*
X122100659Y-88058228D01*
X122101628Y-88067448D01*
X122102136Y-88073909D01*
X122105686Y-88141643D01*
X122105688Y-88141653D01*
X122109315Y-88155189D01*
X122112860Y-88174314D01*
X122114325Y-88188249D01*
X122114326Y-88188256D01*
X122114328Y-88188262D01*
X122135282Y-88252755D01*
X122137125Y-88258976D01*
X122154679Y-88324486D01*
X122154684Y-88324498D01*
X122161043Y-88336978D01*
X122168488Y-88354949D01*
X122172820Y-88368282D01*
X122206726Y-88427009D01*
X122209822Y-88432712D01*
X122240616Y-88493147D01*
X122240620Y-88493153D01*
X122249438Y-88504043D01*
X122260454Y-88520070D01*
X122267465Y-88532213D01*
X122267470Y-88532220D01*
X122312855Y-88582627D01*
X122317063Y-88587554D01*
X122329883Y-88603383D01*
X122344275Y-88617775D01*
X122348743Y-88622483D01*
X122394128Y-88672887D01*
X122405468Y-88681126D01*
X122420265Y-88693764D01*
X122664820Y-88938319D01*
X122698305Y-88999642D01*
X122693321Y-89069334D01*
X122651449Y-89125267D01*
X122585985Y-89149684D01*
X122577139Y-89150000D01*
X122500000Y-89150000D01*
X122500000Y-89969382D01*
X122430948Y-89915637D01*
X122312576Y-89875000D01*
X122218927Y-89875000D01*
X122126554Y-89890414D01*
X122016486Y-89949981D01*
X122000000Y-89967889D01*
X122000000Y-89150000D01*
X121922602Y-89150000D01*
X121765877Y-89164965D01*
X121765873Y-89164966D01*
X121564313Y-89224149D01*
X121377585Y-89320413D01*
X121212462Y-89450268D01*
X121212459Y-89450271D01*
X121074894Y-89609030D01*
X121074885Y-89609041D01*
X120969855Y-89790960D01*
X120969852Y-89790967D01*
X120901144Y-89989482D01*
X120901144Y-89989484D01*
X120899632Y-90000000D01*
X121970440Y-90000000D01*
X121931722Y-90042059D01*
X121881449Y-90156670D01*
X121871114Y-90281395D01*
X121901837Y-90402719D01*
X121965394Y-90500000D01*
X120903742Y-90500000D01*
X120930770Y-90611409D01*
X121018040Y-90802507D01*
X121139889Y-90973619D01*
X121139900Y-90973631D01*
X121242521Y-91071479D01*
X121277457Y-91131987D01*
X121274132Y-91201778D01*
X121233604Y-91258692D01*
X121222049Y-91266760D01*
X121156347Y-91307285D01*
X121156343Y-91307288D01*
X121032289Y-91431342D01*
X120940187Y-91580663D01*
X120940185Y-91580668D01*
X120927947Y-91617601D01*
X120885001Y-91747203D01*
X120885001Y-91747204D01*
X120885000Y-91747204D01*
X120874500Y-91849983D01*
X120874500Y-92650001D01*
X120874501Y-92650019D01*
X120885000Y-92752796D01*
X120885001Y-92752799D01*
X120940185Y-92919331D01*
X120940187Y-92919336D01*
X120962146Y-92954937D01*
X121032288Y-93068656D01*
X121156344Y-93192712D01*
X121305666Y-93284814D01*
X121472203Y-93339999D01*
X121574991Y-93350500D01*
X122025638Y-93350499D01*
X122092677Y-93370183D01*
X122113319Y-93386818D01*
X123306236Y-94579736D01*
X123318871Y-94594529D01*
X123327110Y-94605869D01*
X123327115Y-94605875D01*
X123377504Y-94651244D01*
X123382197Y-94655697D01*
X123396620Y-94670120D01*
X123412456Y-94682943D01*
X123417375Y-94687145D01*
X123442708Y-94709954D01*
X123467784Y-94732533D01*
X123479920Y-94739540D01*
X123495952Y-94750557D01*
X123506851Y-94759383D01*
X123517903Y-94765014D01*
X123568700Y-94812987D01*
X123585497Y-94880808D01*
X123562961Y-94946943D01*
X123508247Y-94990396D01*
X123461611Y-94999500D01*
X120124500Y-94999500D01*
X120057461Y-94979815D01*
X120011706Y-94927011D01*
X120000500Y-94875500D01*
X120000500Y-85124500D01*
X120020185Y-85057461D01*
X120072989Y-85011706D01*
X120124500Y-85000500D01*
X125473253Y-85000500D01*
X125515124Y-85012795D01*
G37*
%TD.AperFunction*%
%TA.AperFunction,Conductor*%
G36*
X141442539Y-85020185D02*
G01*
X141488294Y-85072989D01*
X141499500Y-85124500D01*
X141499500Y-94875500D01*
X141479815Y-94942539D01*
X141427011Y-94988294D01*
X141375500Y-94999500D01*
X136823361Y-94999500D01*
X136756322Y-94979815D01*
X136710567Y-94927011D01*
X136700623Y-94857853D01*
X136729648Y-94794297D01*
X136735680Y-94787819D01*
X138136681Y-93386818D01*
X138198004Y-93353333D01*
X138224362Y-93350499D01*
X138675002Y-93350499D01*
X138675008Y-93350499D01*
X138777797Y-93339999D01*
X138944334Y-93284814D01*
X139093656Y-93192712D01*
X139217712Y-93068656D01*
X139309814Y-92919334D01*
X139364999Y-92752797D01*
X139375500Y-92650009D01*
X139375499Y-91849992D01*
X139364999Y-91747203D01*
X139309814Y-91580666D01*
X139217712Y-91431344D01*
X139093656Y-91307288D01*
X139030258Y-91268184D01*
X138983535Y-91216237D01*
X138972312Y-91147274D01*
X139000156Y-91083192D01*
X139018697Y-91065181D01*
X139037886Y-91050092D01*
X139175519Y-90891256D01*
X139183046Y-90878220D01*
X139273447Y-90721640D01*
X139280604Y-90709244D01*
X139349344Y-90510633D01*
X139379254Y-90302602D01*
X139369254Y-90092670D01*
X139319704Y-89888424D01*
X139319701Y-89888417D01*
X139232401Y-89697256D01*
X139232398Y-89697251D01*
X139232397Y-89697250D01*
X139232396Y-89697247D01*
X139110486Y-89526048D01*
X139110484Y-89526046D01*
X139110479Y-89526040D01*
X138958379Y-89381014D01*
X138781574Y-89267388D01*
X138723533Y-89244152D01*
X138684014Y-89228331D01*
X138586455Y-89189274D01*
X138380086Y-89149500D01*
X138380085Y-89149500D01*
X138012230Y-89149500D01*
X137945191Y-89129815D01*
X137924549Y-89113181D01*
X137575729Y-88764361D01*
X137563949Y-88750730D01*
X137549610Y-88731470D01*
X137511651Y-88699619D01*
X137503686Y-88692318D01*
X137499780Y-88688411D01*
X137475443Y-88669168D01*
X137472647Y-88666890D01*
X137415214Y-88618698D01*
X137409180Y-88614729D01*
X137409212Y-88614680D01*
X137402853Y-88610628D01*
X137402822Y-88610679D01*
X137396680Y-88606891D01*
X137396678Y-88606890D01*
X137396677Y-88606889D01*
X137328688Y-88575184D01*
X137325447Y-88573615D01*
X137282544Y-88552069D01*
X137258433Y-88539960D01*
X137258431Y-88539959D01*
X137258430Y-88539959D01*
X137251645Y-88537489D01*
X137251665Y-88537433D01*
X137244549Y-88534959D01*
X137244531Y-88535015D01*
X137237674Y-88532743D01*
X137164210Y-88517573D01*
X137160693Y-88516793D01*
X137087718Y-88499499D01*
X137080547Y-88498661D01*
X137080553Y-88498601D01*
X137073055Y-88497835D01*
X137073050Y-88497895D01*
X137065860Y-88497265D01*
X136990870Y-88499448D01*
X136987263Y-88499500D01*
X135119828Y-88499500D01*
X135085233Y-88494576D01*
X134940073Y-88452402D01*
X134940067Y-88452401D01*
X134903201Y-88449500D01*
X134903194Y-88449500D01*
X133737000Y-88449500D01*
X133669961Y-88429815D01*
X133624206Y-88377011D01*
X133613000Y-88325500D01*
X133613000Y-88084313D01*
X133612999Y-88084298D01*
X133612181Y-88073909D01*
X133610098Y-88047431D01*
X133610027Y-88047188D01*
X133564245Y-87889606D01*
X133564244Y-87889603D01*
X133564244Y-87889602D01*
X133480581Y-87748135D01*
X133480579Y-87748133D01*
X133480576Y-87748129D01*
X133364370Y-87631923D01*
X133364362Y-87631917D01*
X133222896Y-87548255D01*
X133222893Y-87548254D01*
X133104691Y-87513913D01*
X133045805Y-87476307D01*
X133016599Y-87412834D01*
X133026345Y-87343648D01*
X133064605Y-87299237D01*
X133062989Y-87297193D01*
X133068651Y-87292715D01*
X133068650Y-87292715D01*
X133068656Y-87292712D01*
X133162675Y-87198692D01*
X133223994Y-87165210D01*
X133293686Y-87170194D01*
X133338034Y-87198695D01*
X133431654Y-87292315D01*
X133580875Y-87384356D01*
X133580880Y-87384358D01*
X133747302Y-87439505D01*
X133747309Y-87439506D01*
X133850019Y-87449999D01*
X133999999Y-87449999D01*
X134000000Y-87449998D01*
X134000000Y-86500000D01*
X134500000Y-86500000D01*
X134500000Y-87449999D01*
X134649972Y-87449999D01*
X134649986Y-87449998D01*
X134752697Y-87439505D01*
X134919119Y-87384358D01*
X134919124Y-87384356D01*
X135068345Y-87292315D01*
X135192315Y-87168345D01*
X135284356Y-87019124D01*
X135284358Y-87019119D01*
X135339505Y-86852697D01*
X135339506Y-86852690D01*
X135349999Y-86749986D01*
X135350000Y-86749973D01*
X135350000Y-86500000D01*
X134500000Y-86500000D01*
X134000000Y-86500000D01*
X134000000Y-86124000D01*
X134019685Y-86056961D01*
X134072489Y-86011206D01*
X134124000Y-86000000D01*
X135349999Y-86000000D01*
X135349999Y-85750028D01*
X135349998Y-85750013D01*
X135339505Y-85647302D01*
X135284358Y-85480880D01*
X135284356Y-85480875D01*
X135192315Y-85331654D01*
X135072842Y-85212181D01*
X135039357Y-85150858D01*
X135044341Y-85081166D01*
X135086213Y-85025233D01*
X135151677Y-85000816D01*
X135160523Y-85000500D01*
X141375500Y-85000500D01*
X141442539Y-85020185D01*
G37*
%TD.AperFunction*%
%TA.AperFunction,Conductor*%
G36*
X133343806Y-89967268D02*
G01*
X133402102Y-90001744D01*
X133414769Y-90005424D01*
X133559926Y-90047597D01*
X133559929Y-90047597D01*
X133559931Y-90047598D01*
X133596806Y-90050500D01*
X133596814Y-90050500D01*
X134903186Y-90050500D01*
X134903194Y-90050500D01*
X134940069Y-90047598D01*
X134940071Y-90047597D01*
X134940073Y-90047597D01*
X135085233Y-90005424D01*
X135119828Y-90000500D01*
X136505951Y-90000500D01*
X136572990Y-90020185D01*
X136618745Y-90072989D01*
X136628689Y-90142146D01*
X136620746Y-90197393D01*
X136620745Y-90197397D01*
X136630745Y-90407327D01*
X136680296Y-90611578D01*
X136680298Y-90611582D01*
X136767598Y-90802743D01*
X136767601Y-90802748D01*
X136767602Y-90802750D01*
X136767604Y-90802753D01*
X136889514Y-90973952D01*
X136889515Y-90973953D01*
X136992082Y-91071750D01*
X137027017Y-91132259D01*
X137023692Y-91202049D01*
X136983164Y-91258963D01*
X136971610Y-91267031D01*
X136906344Y-91307287D01*
X136782289Y-91431342D01*
X136690187Y-91580663D01*
X136690185Y-91580668D01*
X136677947Y-91617601D01*
X136635001Y-91747203D01*
X136635001Y-91747204D01*
X136635000Y-91747204D01*
X136624500Y-91849983D01*
X136624500Y-92300637D01*
X136604815Y-92367676D01*
X136588181Y-92388318D01*
X136293569Y-92682931D01*
X135691687Y-93284814D01*
X135413320Y-93563181D01*
X135351997Y-93596666D01*
X135325639Y-93599500D01*
X132593174Y-93599500D01*
X132526135Y-93579815D01*
X132480380Y-93527011D01*
X132470436Y-93457853D01*
X132487635Y-93410403D01*
X132559356Y-93294124D01*
X132559358Y-93294119D01*
X132614505Y-93127697D01*
X132614506Y-93127690D01*
X132624999Y-93024986D01*
X132625000Y-93024973D01*
X132625000Y-92750000D01*
X131411500Y-92750000D01*
X131344461Y-92730315D01*
X131298706Y-92677511D01*
X131287500Y-92626000D01*
X131287500Y-91275000D01*
X131787500Y-91275000D01*
X131787500Y-92250000D01*
X132624999Y-92250000D01*
X132624999Y-91975028D01*
X132624998Y-91975013D01*
X132614505Y-91872302D01*
X132559358Y-91705880D01*
X132559356Y-91705875D01*
X132467315Y-91556654D01*
X132343345Y-91432684D01*
X132194124Y-91340643D01*
X132194119Y-91340641D01*
X132027697Y-91285494D01*
X132027690Y-91285493D01*
X131924986Y-91275000D01*
X131787500Y-91275000D01*
X131287500Y-91275000D01*
X131150027Y-91275000D01*
X131150012Y-91275001D01*
X131047302Y-91285494D01*
X130880880Y-91340641D01*
X130880875Y-91340643D01*
X130731654Y-91432684D01*
X130607683Y-91556655D01*
X130607679Y-91556660D01*
X130605826Y-91559665D01*
X130604018Y-91561290D01*
X130603202Y-91562323D01*
X130603025Y-91562183D01*
X130553874Y-91606385D01*
X130484911Y-91617601D01*
X130420831Y-91589752D01*
X130394753Y-91559653D01*
X130394737Y-91559628D01*
X130392712Y-91556344D01*
X130268656Y-91432288D01*
X130262989Y-91427807D01*
X130264430Y-91425984D01*
X130225175Y-91382335D01*
X130213000Y-91328752D01*
X130213000Y-91020529D01*
X130217117Y-90995020D01*
X130215796Y-90994748D01*
X130219770Y-90975500D01*
X130232447Y-90914104D01*
X130233194Y-90910734D01*
X130240901Y-90878220D01*
X130242637Y-90870898D01*
X130277253Y-90810206D01*
X130339187Y-90777865D01*
X130363293Y-90775499D01*
X130777871Y-90775499D01*
X130777872Y-90775499D01*
X130837483Y-90769091D01*
X130972331Y-90718796D01*
X131054431Y-90657335D01*
X131119892Y-90632919D01*
X131188165Y-90647770D01*
X131235472Y-90693482D01*
X131269814Y-90751552D01*
X131269821Y-90751561D01*
X131385938Y-90867678D01*
X131385947Y-90867685D01*
X131527303Y-90951282D01*
X131527306Y-90951283D01*
X131685004Y-90997099D01*
X131685010Y-90997100D01*
X131721850Y-90999999D01*
X131721866Y-91000000D01*
X132125000Y-91000000D01*
X132125000Y-90450000D01*
X132625000Y-90450000D01*
X132625000Y-91000000D01*
X133028134Y-91000000D01*
X133028149Y-90999999D01*
X133064989Y-90997100D01*
X133064995Y-90997099D01*
X133222693Y-90951283D01*
X133222696Y-90951282D01*
X133364052Y-90867685D01*
X133364061Y-90867678D01*
X133480178Y-90751561D01*
X133480185Y-90751552D01*
X133563781Y-90610198D01*
X133609600Y-90452486D01*
X133609795Y-90450001D01*
X133609795Y-90450000D01*
X132625000Y-90450000D01*
X132125000Y-90450000D01*
X132125000Y-90074000D01*
X132144685Y-90006961D01*
X132197489Y-89961206D01*
X132249000Y-89950000D01*
X133280685Y-89950000D01*
X133343806Y-89967268D01*
G37*
%TD.AperFunction*%
%TA.AperFunction,Conductor*%
G36*
X124105703Y-87467517D02*
G01*
X124112181Y-87473549D01*
X124181344Y-87542712D01*
X124330666Y-87634814D01*
X124497203Y-87689999D01*
X124599991Y-87700500D01*
X125400008Y-87700499D01*
X125400016Y-87700498D01*
X125400019Y-87700498D01*
X125456302Y-87694748D01*
X125502797Y-87689999D01*
X125669334Y-87634814D01*
X125780513Y-87566238D01*
X125847903Y-87547798D01*
X125914567Y-87568720D01*
X125959336Y-87622362D01*
X125968611Y-87673806D01*
X125969500Y-87673806D01*
X125969500Y-88422870D01*
X125969501Y-88422876D01*
X125975909Y-88482487D01*
X125977692Y-88490031D01*
X125976438Y-88490327D01*
X125980856Y-88552069D01*
X125976864Y-88565664D01*
X125976401Y-88567624D01*
X125970000Y-88627155D01*
X125970000Y-88750000D01*
X126094499Y-88750000D01*
X126161538Y-88769685D01*
X126168794Y-88774722D01*
X126210890Y-88806235D01*
X126227668Y-88818795D01*
X126227671Y-88818797D01*
X126362517Y-88869091D01*
X126362516Y-88869091D01*
X126369444Y-88869835D01*
X126422127Y-88875500D01*
X127376001Y-88875499D01*
X127443039Y-88895183D01*
X127488794Y-88947987D01*
X127500000Y-88999499D01*
X127500000Y-89000500D01*
X127480315Y-89067539D01*
X127427511Y-89113294D01*
X127376000Y-89124500D01*
X126422129Y-89124500D01*
X126422123Y-89124501D01*
X126362516Y-89130908D01*
X126227671Y-89181202D01*
X126227668Y-89181204D01*
X126209511Y-89194797D01*
X126168808Y-89225266D01*
X126103347Y-89249684D01*
X126094499Y-89250000D01*
X125970000Y-89250000D01*
X125970000Y-89372844D01*
X125976401Y-89432372D01*
X125978187Y-89439930D01*
X125976542Y-89440318D01*
X125980851Y-89500656D01*
X125975943Y-89517371D01*
X125975908Y-89517520D01*
X125969501Y-89577117D01*
X125969500Y-89577136D01*
X125969500Y-90322870D01*
X125969501Y-90322876D01*
X125975908Y-90382483D01*
X126026202Y-90517328D01*
X126026206Y-90517335D01*
X126112452Y-90632544D01*
X126112455Y-90632547D01*
X126227664Y-90718793D01*
X126227671Y-90718797D01*
X126272618Y-90735561D01*
X126362517Y-90769091D01*
X126373791Y-90770303D01*
X126438340Y-90797040D01*
X126478189Y-90854432D01*
X126480684Y-90924257D01*
X126445032Y-90984346D01*
X126425632Y-90999131D01*
X126331342Y-91057289D01*
X126325451Y-91063181D01*
X126264128Y-91096666D01*
X126237770Y-91099500D01*
X126174361Y-91099500D01*
X126107322Y-91079815D01*
X126086680Y-91063181D01*
X125436819Y-90413320D01*
X125403334Y-90351997D01*
X125400500Y-90325639D01*
X125400500Y-89580626D01*
X125402027Y-89561225D01*
X125404219Y-89547388D01*
X125400670Y-89479668D01*
X125400500Y-89473179D01*
X125400500Y-89452813D01*
X125400500Y-89452808D01*
X125398364Y-89432483D01*
X125397861Y-89426089D01*
X125394312Y-89358354D01*
X125394311Y-89358348D01*
X125390687Y-89344825D01*
X125387139Y-89325684D01*
X125385674Y-89311748D01*
X125385674Y-89311744D01*
X125364707Y-89247219D01*
X125362871Y-89241016D01*
X125350487Y-89194797D01*
X125345320Y-89175512D01*
X125338954Y-89163019D01*
X125331508Y-89145042D01*
X125327178Y-89131714D01*
X125327174Y-89131707D01*
X125293265Y-89072975D01*
X125290178Y-89067292D01*
X125259383Y-89006851D01*
X125259382Y-89006849D01*
X125250560Y-88995955D01*
X125239538Y-88979918D01*
X125232532Y-88967783D01*
X125232531Y-88967781D01*
X125187146Y-88917376D01*
X125182931Y-88912441D01*
X125170119Y-88896620D01*
X125168682Y-88895183D01*
X125155706Y-88882207D01*
X125151254Y-88877515D01*
X125105872Y-88827113D01*
X125105871Y-88827112D01*
X125094525Y-88818869D01*
X125079734Y-88806235D01*
X123936819Y-87663320D01*
X123903334Y-87601997D01*
X123900500Y-87575639D01*
X123900500Y-87561230D01*
X123920185Y-87494191D01*
X123972989Y-87448436D01*
X124042147Y-87438492D01*
X124105703Y-87467517D01*
G37*
%TD.AperFunction*%
%TD*%
M02*
