%TF.GenerationSoftware,KiCad,Pcbnew,9.0.6*%
%TF.CreationDate,2026-01-13T11:25:50+08:00*%
%TF.ProjectId,CN312,434e3331-322e-46b6-9963-61645f706362,rev?*%
%TF.SameCoordinates,Original*%
%TF.FileFunction,Legend,Top*%
%TF.FilePolarity,Positive*%
%FSLAX46Y46*%
G04 Gerber Fmt 4.6, Leading zero omitted, Abs format (unit mm)*
G04 Created by KiCad (PCBNEW 9.0.6) date 2026-01-13 11:25:50*
%MOMM*%
%LPD*%
G01*
G04 APERTURE LIST*
%ADD10C,0.150000*%
%ADD11C,0.120000*%
G04 APERTURE END LIST*
D10*
X102957333Y-103483580D02*
X102909714Y-103531200D01*
X102909714Y-103531200D02*
X102766857Y-103578819D01*
X102766857Y-103578819D02*
X102671619Y-103578819D01*
X102671619Y-103578819D02*
X102528762Y-103531200D01*
X102528762Y-103531200D02*
X102433524Y-103435961D01*
X102433524Y-103435961D02*
X102385905Y-103340723D01*
X102385905Y-103340723D02*
X102338286Y-103150247D01*
X102338286Y-103150247D02*
X102338286Y-103007390D01*
X102338286Y-103007390D02*
X102385905Y-102816914D01*
X102385905Y-102816914D02*
X102433524Y-102721676D01*
X102433524Y-102721676D02*
X102528762Y-102626438D01*
X102528762Y-102626438D02*
X102671619Y-102578819D01*
X102671619Y-102578819D02*
X102766857Y-102578819D01*
X102766857Y-102578819D02*
X102909714Y-102626438D01*
X102909714Y-102626438D02*
X102957333Y-102674057D01*
X103909714Y-103578819D02*
X103338286Y-103578819D01*
X103624000Y-103578819D02*
X103624000Y-102578819D01*
X103624000Y-102578819D02*
X103528762Y-102721676D01*
X103528762Y-102721676D02*
X103433524Y-102816914D01*
X103433524Y-102816914D02*
X103338286Y-102864533D01*
X111593333Y-95196819D02*
X111260000Y-94720628D01*
X111021905Y-95196819D02*
X111021905Y-94196819D01*
X111021905Y-94196819D02*
X111402857Y-94196819D01*
X111402857Y-94196819D02*
X111498095Y-94244438D01*
X111498095Y-94244438D02*
X111545714Y-94292057D01*
X111545714Y-94292057D02*
X111593333Y-94387295D01*
X111593333Y-94387295D02*
X111593333Y-94530152D01*
X111593333Y-94530152D02*
X111545714Y-94625390D01*
X111545714Y-94625390D02*
X111498095Y-94673009D01*
X111498095Y-94673009D02*
X111402857Y-94720628D01*
X111402857Y-94720628D02*
X111021905Y-94720628D01*
X111974286Y-94292057D02*
X112021905Y-94244438D01*
X112021905Y-94244438D02*
X112117143Y-94196819D01*
X112117143Y-94196819D02*
X112355238Y-94196819D01*
X112355238Y-94196819D02*
X112450476Y-94244438D01*
X112450476Y-94244438D02*
X112498095Y-94292057D01*
X112498095Y-94292057D02*
X112545714Y-94387295D01*
X112545714Y-94387295D02*
X112545714Y-94482533D01*
X112545714Y-94482533D02*
X112498095Y-94625390D01*
X112498095Y-94625390D02*
X111926667Y-95196819D01*
X111926667Y-95196819D02*
X112545714Y-95196819D01*
X109561333Y-95196819D02*
X109228000Y-94720628D01*
X108989905Y-95196819D02*
X108989905Y-94196819D01*
X108989905Y-94196819D02*
X109370857Y-94196819D01*
X109370857Y-94196819D02*
X109466095Y-94244438D01*
X109466095Y-94244438D02*
X109513714Y-94292057D01*
X109513714Y-94292057D02*
X109561333Y-94387295D01*
X109561333Y-94387295D02*
X109561333Y-94530152D01*
X109561333Y-94530152D02*
X109513714Y-94625390D01*
X109513714Y-94625390D02*
X109466095Y-94673009D01*
X109466095Y-94673009D02*
X109370857Y-94720628D01*
X109370857Y-94720628D02*
X108989905Y-94720628D01*
X109894667Y-94196819D02*
X110513714Y-94196819D01*
X110513714Y-94196819D02*
X110180381Y-94577771D01*
X110180381Y-94577771D02*
X110323238Y-94577771D01*
X110323238Y-94577771D02*
X110418476Y-94625390D01*
X110418476Y-94625390D02*
X110466095Y-94673009D01*
X110466095Y-94673009D02*
X110513714Y-94768247D01*
X110513714Y-94768247D02*
X110513714Y-95006342D01*
X110513714Y-95006342D02*
X110466095Y-95101580D01*
X110466095Y-95101580D02*
X110418476Y-95149200D01*
X110418476Y-95149200D02*
X110323238Y-95196819D01*
X110323238Y-95196819D02*
X110037524Y-95196819D01*
X110037524Y-95196819D02*
X109942286Y-95149200D01*
X109942286Y-95149200D02*
X109894667Y-95101580D01*
X107571333Y-95196819D02*
X107238000Y-94720628D01*
X106999905Y-95196819D02*
X106999905Y-94196819D01*
X106999905Y-94196819D02*
X107380857Y-94196819D01*
X107380857Y-94196819D02*
X107476095Y-94244438D01*
X107476095Y-94244438D02*
X107523714Y-94292057D01*
X107523714Y-94292057D02*
X107571333Y-94387295D01*
X107571333Y-94387295D02*
X107571333Y-94530152D01*
X107571333Y-94530152D02*
X107523714Y-94625390D01*
X107523714Y-94625390D02*
X107476095Y-94673009D01*
X107476095Y-94673009D02*
X107380857Y-94720628D01*
X107380857Y-94720628D02*
X106999905Y-94720628D01*
X108523714Y-95196819D02*
X107952286Y-95196819D01*
X108238000Y-95196819D02*
X108238000Y-94196819D01*
X108238000Y-94196819D02*
X108142762Y-94339676D01*
X108142762Y-94339676D02*
X108047524Y-94434914D01*
X108047524Y-94434914D02*
X107952286Y-94482533D01*
X106076761Y-101642057D02*
X105981523Y-101594438D01*
X105981523Y-101594438D02*
X105886285Y-101499200D01*
X105886285Y-101499200D02*
X105743428Y-101356342D01*
X105743428Y-101356342D02*
X105648190Y-101308723D01*
X105648190Y-101308723D02*
X105552952Y-101308723D01*
X105600571Y-101546819D02*
X105505333Y-101499200D01*
X105505333Y-101499200D02*
X105410095Y-101403961D01*
X105410095Y-101403961D02*
X105362476Y-101213485D01*
X105362476Y-101213485D02*
X105362476Y-100880152D01*
X105362476Y-100880152D02*
X105410095Y-100689676D01*
X105410095Y-100689676D02*
X105505333Y-100594438D01*
X105505333Y-100594438D02*
X105600571Y-100546819D01*
X105600571Y-100546819D02*
X105791047Y-100546819D01*
X105791047Y-100546819D02*
X105886285Y-100594438D01*
X105886285Y-100594438D02*
X105981523Y-100689676D01*
X105981523Y-100689676D02*
X106029142Y-100880152D01*
X106029142Y-100880152D02*
X106029142Y-101213485D01*
X106029142Y-101213485D02*
X105981523Y-101403961D01*
X105981523Y-101403961D02*
X105886285Y-101499200D01*
X105886285Y-101499200D02*
X105791047Y-101546819D01*
X105791047Y-101546819D02*
X105600571Y-101546819D01*
X106981523Y-101546819D02*
X106410095Y-101546819D01*
X106695809Y-101546819D02*
X106695809Y-100546819D01*
X106695809Y-100546819D02*
X106600571Y-100689676D01*
X106600571Y-100689676D02*
X106505333Y-100784914D01*
X106505333Y-100784914D02*
X106410095Y-100832533D01*
X100773333Y-103578819D02*
X100440000Y-103102628D01*
X100201905Y-103578819D02*
X100201905Y-102578819D01*
X100201905Y-102578819D02*
X100582857Y-102578819D01*
X100582857Y-102578819D02*
X100678095Y-102626438D01*
X100678095Y-102626438D02*
X100725714Y-102674057D01*
X100725714Y-102674057D02*
X100773333Y-102769295D01*
X100773333Y-102769295D02*
X100773333Y-102912152D01*
X100773333Y-102912152D02*
X100725714Y-103007390D01*
X100725714Y-103007390D02*
X100678095Y-103055009D01*
X100678095Y-103055009D02*
X100582857Y-103102628D01*
X100582857Y-103102628D02*
X100201905Y-103102628D01*
X101630476Y-102912152D02*
X101630476Y-103578819D01*
X101392381Y-102531200D02*
X101154286Y-103245485D01*
X101154286Y-103245485D02*
X101773333Y-103245485D01*
X108378666Y-95466819D02*
X108378666Y-96181104D01*
X108378666Y-96181104D02*
X108331047Y-96323961D01*
X108331047Y-96323961D02*
X108235809Y-96419200D01*
X108235809Y-96419200D02*
X108092952Y-96466819D01*
X108092952Y-96466819D02*
X107997714Y-96466819D01*
X108807238Y-95562057D02*
X108854857Y-95514438D01*
X108854857Y-95514438D02*
X108950095Y-95466819D01*
X108950095Y-95466819D02*
X109188190Y-95466819D01*
X109188190Y-95466819D02*
X109283428Y-95514438D01*
X109283428Y-95514438D02*
X109331047Y-95562057D01*
X109331047Y-95562057D02*
X109378666Y-95657295D01*
X109378666Y-95657295D02*
X109378666Y-95752533D01*
X109378666Y-95752533D02*
X109331047Y-95895390D01*
X109331047Y-95895390D02*
X108759619Y-96466819D01*
X108759619Y-96466819D02*
X109378666Y-96466819D01*
X110252000Y-95466819D02*
X110442476Y-95466819D01*
X110442476Y-95466819D02*
X110537714Y-95514438D01*
X110537714Y-95514438D02*
X110632952Y-95609676D01*
X110632952Y-95609676D02*
X110680571Y-95800152D01*
X110680571Y-95800152D02*
X110680571Y-96133485D01*
X110680571Y-96133485D02*
X110632952Y-96323961D01*
X110632952Y-96323961D02*
X110537714Y-96419200D01*
X110537714Y-96419200D02*
X110442476Y-96466819D01*
X110442476Y-96466819D02*
X110252000Y-96466819D01*
X110252000Y-96466819D02*
X110156762Y-96419200D01*
X110156762Y-96419200D02*
X110061524Y-96323961D01*
X110061524Y-96323961D02*
X110013905Y-96133485D01*
X110013905Y-96133485D02*
X110013905Y-95800152D01*
X110013905Y-95800152D02*
X110061524Y-95609676D01*
X110061524Y-95609676D02*
X110156762Y-95514438D01*
X110156762Y-95514438D02*
X110252000Y-95466819D01*
X111109143Y-95466819D02*
X111109143Y-96276342D01*
X111109143Y-96276342D02*
X111156762Y-96371580D01*
X111156762Y-96371580D02*
X111204381Y-96419200D01*
X111204381Y-96419200D02*
X111299619Y-96466819D01*
X111299619Y-96466819D02*
X111490095Y-96466819D01*
X111490095Y-96466819D02*
X111585333Y-96419200D01*
X111585333Y-96419200D02*
X111632952Y-96371580D01*
X111632952Y-96371580D02*
X111680571Y-96276342D01*
X111680571Y-96276342D02*
X111680571Y-95466819D01*
X112013905Y-95466819D02*
X112585333Y-95466819D01*
X112299619Y-96466819D02*
X112299619Y-95466819D01*
X92376666Y-95466819D02*
X92376666Y-96181104D01*
X92376666Y-96181104D02*
X92329047Y-96323961D01*
X92329047Y-96323961D02*
X92233809Y-96419200D01*
X92233809Y-96419200D02*
X92090952Y-96466819D01*
X92090952Y-96466819D02*
X91995714Y-96466819D01*
X93376666Y-96466819D02*
X92805238Y-96466819D01*
X93090952Y-96466819D02*
X93090952Y-95466819D01*
X93090952Y-95466819D02*
X92995714Y-95609676D01*
X92995714Y-95609676D02*
X92900476Y-95704914D01*
X92900476Y-95704914D02*
X92805238Y-95752533D01*
X92186191Y-95196819D02*
X92186191Y-94196819D01*
X92662381Y-95196819D02*
X92662381Y-94196819D01*
X92662381Y-94196819D02*
X93233809Y-95196819D01*
X93233809Y-95196819D02*
X93233809Y-94196819D01*
D11*
%TO.C,C1*%
X101678748Y-100357000D02*
X102201252Y-100357000D01*
X101678748Y-101827000D02*
X102201252Y-101827000D01*
%TO.C,R2*%
X104462936Y-94495000D02*
X104917064Y-94495000D01*
X104462936Y-95965000D02*
X104917064Y-95965000D01*
%TO.C,R3*%
X99962936Y-94245000D02*
X100417064Y-94245000D01*
X99962936Y-95715000D02*
X100417064Y-95715000D01*
%TO.C,R1*%
X95260936Y-94515000D02*
X95715064Y-94515000D01*
X95260936Y-95985000D02*
X95715064Y-95985000D01*
%TO.C,Q1*%
X104752500Y-96670000D02*
X103077500Y-96670000D01*
X104752500Y-96670000D02*
X105402500Y-96670000D01*
X104752500Y-99790000D02*
X104102500Y-99790000D01*
X104752500Y-99790000D02*
X105402500Y-99790000D01*
%TO.C,R4*%
X97955000Y-102207064D02*
X97955000Y-101752936D01*
X99425000Y-102207064D02*
X99425000Y-101752936D01*
%TO.C,J2*%
X107330000Y-102340000D02*
X107330000Y-103590000D01*
X107330000Y-103590000D02*
X108580000Y-103590000D01*
X107430000Y-101530000D02*
X107430000Y-101830000D01*
X107430000Y-101830000D02*
X107630000Y-101830000D01*
X107530000Y-101530000D02*
X107530000Y-101830000D01*
X107630000Y-97170000D02*
X107630000Y-103290000D01*
X107630000Y-100730000D02*
X108240000Y-100730000D01*
X107630000Y-101530000D02*
X107430000Y-101530000D01*
X107630000Y-103290000D02*
X112350000Y-103290000D01*
X108240000Y-97780000D02*
X108240000Y-99730000D01*
X108240000Y-99730000D02*
X107630000Y-99730000D01*
X108240000Y-100730000D02*
X108240000Y-102680000D01*
X108240000Y-102680000D02*
X111740000Y-102680000D01*
X108940000Y-97170000D02*
X108940000Y-97780000D01*
X108940000Y-103290000D02*
X108940000Y-102680000D01*
X110240000Y-97170000D02*
X110240000Y-97780000D01*
X110240000Y-103290000D02*
X110240000Y-102680000D01*
X111240000Y-100130000D02*
X111740000Y-100130000D01*
X111240000Y-100330000D02*
X111240000Y-100130000D01*
X111740000Y-97780000D02*
X108240000Y-97780000D01*
X111740000Y-100230000D02*
X111240000Y-100230000D01*
X111740000Y-100330000D02*
X111240000Y-100330000D01*
X111740000Y-102680000D02*
X111740000Y-97780000D01*
X112350000Y-97170000D02*
X107630000Y-97170000D01*
X112350000Y-103290000D02*
X112350000Y-97170000D01*
%TO.C,U1*%
X99140000Y-99590000D02*
X100940000Y-99590000D01*
X100940000Y-96370000D02*
X97990000Y-96370000D01*
%TO.C,J1*%
X91580000Y-102340000D02*
X91580000Y-103590000D01*
X91580000Y-103590000D02*
X92830000Y-103590000D01*
X91680000Y-101530000D02*
X91680000Y-101830000D01*
X91680000Y-101830000D02*
X91880000Y-101830000D01*
X91780000Y-101530000D02*
X91780000Y-101830000D01*
X91880000Y-97170000D02*
X91880000Y-103290000D01*
X91880000Y-100730000D02*
X92490000Y-100730000D01*
X91880000Y-101530000D02*
X91680000Y-101530000D01*
X91880000Y-103290000D02*
X96600000Y-103290000D01*
X92490000Y-97780000D02*
X92490000Y-99730000D01*
X92490000Y-99730000D02*
X91880000Y-99730000D01*
X92490000Y-100730000D02*
X92490000Y-102680000D01*
X92490000Y-102680000D02*
X95990000Y-102680000D01*
X93190000Y-97170000D02*
X93190000Y-97780000D01*
X93190000Y-103290000D02*
X93190000Y-102680000D01*
X94490000Y-97170000D02*
X94490000Y-97780000D01*
X94490000Y-103290000D02*
X94490000Y-102680000D01*
X95490000Y-100130000D02*
X95990000Y-100130000D01*
X95490000Y-100330000D02*
X95490000Y-100130000D01*
X95990000Y-97780000D02*
X92490000Y-97780000D01*
X95990000Y-100230000D02*
X95490000Y-100230000D01*
X95990000Y-100330000D02*
X95490000Y-100330000D01*
X95990000Y-102680000D02*
X95990000Y-97780000D01*
X96600000Y-97170000D02*
X91880000Y-97170000D01*
X96600000Y-103290000D02*
X96600000Y-97170000D01*
%TD*%
M02*
